<svg xmlns="http://www.w3.org/2000/svg" width="1200" height="340" viewBox="0 0 1200 340">
  <rect width="1200" height="340" fill="#f7f5ef"/>
  <text x="40" y="52" font-size="30" font-family="Georgia, serif" fill="#1e2a24">How ASE Works</text>
  <rect x="40" y="100" width="200" height="120" rx="14" fill="#d6e4c3" stroke="#1e2a24" stroke-width="2"/>
  <text x="92" y="150" font-size="22" font-family="Helvetica, Arial, sans-serif" fill="#1e2a24">Agent Runtime</text>
  <text x="70" y="180" font-size="16" font-family="Helvetica, Arial, sans-serif" fill="#1e2a24">Own prompts, tools, model</text>
  <rect x="290" y="100" width="250" height="120" rx="14" fill="#f3d9b1" stroke="#1e2a24" stroke-width="2"/>
  <text x="350" y="148" font-size="22" font-family="Helvetica, Arial, sans-serif" fill="#1e2a24">ASE Environment</text>
  <text x="328" y="178" font-size="16" font-family="Helvetica, Arial, sans-serif" fill="#1e2a24">Proxy, fixtures, adapters</text>
  <rect x="590" y="100" width="180" height="120" rx="14" fill="#c8dff0" stroke="#1e2a24" stroke-width="2"/>
  <text x="650" y="148" font-size="22" font-family="Helvetica, Arial, sans-serif" fill="#1e2a24">Trace</text>
  <text x="626" y="178" font-size="16" font-family="Helvetica, Arial, sans-serif" fill="#1e2a24">What the agent did</text>
  <rect x="820" y="100" width="180" height="120" rx="14" fill="#f0c9c9" stroke="#1e2a24" stroke-width="2"/>
  <text x="855" y="148" font-size="22" font-family="Helvetica, Arial, sans-serif" fill="#1e2a24">Evaluation</text>
  <text x="844" y="178" font-size="16" font-family="Helvetica, Arial, sans-serif" fill="#1e2a24">Assertions and scores</text>
  <rect x="1050" y="100" width="110" height="120" rx="14" fill="#d8cee9" stroke="#1e2a24" stroke-width="2"/>
  <text x="1073" y="148" font-size="22" font-family="Helvetica, Arial, sans-serif" fill="#1e2a24">Output</text>
  <text x="1067" y="178" font-size="16" font-family="Helvetica, Arial, sans-serif" fill="#1e2a24">Report</text>
  <line x1="240" y1="160" x2="290" y2="160" stroke="#1e2a24" stroke-width="3"/>
  <polygon points="290,160 276,152 276,168" fill="#1e2a24"/>
  <line x1="540" y1="160" x2="590" y2="160" stroke="#1e2a24" stroke-width="3"/>
  <polygon points="590,160 576,152 576,168" fill="#1e2a24"/>
  <line x1="770" y1="160" x2="820" y2="160" stroke="#1e2a24" stroke-width="3"/>
  <polygon points="820,160 806,152 806,168" fill="#1e2a24"/>
  <line x1="1000" y1="160" x2="1050" y2="160" stroke="#1e2a24" stroke-width="3"/>
  <polygon points="1050,160 1036,152 1036,168" fill="#1e2a24"/>
</svg>

