<svg xmlns="http://www.w3.org/2000/svg" width="1200" height="300" viewBox="0 0 1200 300">
  <rect width="1200" height="300" fill="#fffaf3"/>
  <text x="40" y="50" font-size="30" font-family="Georgia, serif" fill="#1e2a24">ASE Workflow Overview</text>
  <rect x="50" y="100" width="220" height="90" rx="12" fill="#d6e4c3" stroke="#1e2a24" stroke-width="2"/>
  <text x="120" y="152" font-size="24" font-family="Helvetica, Arial, sans-serif" fill="#1e2a24">ase watch</text>
  <rect x="330" y="100" width="220" height="90" rx="12" fill="#f3d9b1" stroke="#1e2a24" stroke-width="2"/>
  <text x="408" y="152" font-size="24" font-family="Helvetica, Arial, sans-serif" fill="#1e2a24">ase test</text>
  <rect x="610" y="100" width="220" height="90" rx="12" fill="#c8dff0" stroke="#1e2a24" stroke-width="2"/>
  <text x="667" y="152" font-size="24" font-family="Helvetica, Arial, sans-serif" fill="#1e2a24">ase compare</text>
  <rect x="890" y="100" width="220" height="90" rx="12" fill="#d8cee9" stroke="#1e2a24" stroke-width="2"/>
  <text x="964" y="152" font-size="24" font-family="Helvetica, Arial, sans-serif" fill="#1e2a24">ase certify</text>
  <line x1="270" y1="145" x2="330" y2="145" stroke="#1e2a24" stroke-width="3"/>
  <polygon points="330,145 316,137 316,153" fill="#1e2a24"/>
  <line x1="550" y1="145" x2="610" y2="145" stroke="#1e2a24" stroke-width="3"/>
  <polygon points="610,145 596,137 596,153" fill="#1e2a24"/>
  <line x1="830" y1="145" x2="890" y2="145" stroke="#1e2a24" stroke-width="3"/>
  <polygon points="890,145 876,137 876,153" fill="#1e2a24"/>
</svg>

